 <svg  version="1.0" xmlns="http://www.w3.org/2000/svg"  width="300.000000pt" height="77.000000pt" viewBox="0 0 300.000000 77.000000"  preserveAspectRatio="xMidYMid meet">  <g transform="translate(0.000000,77.000000) scale(0.100000,-0.100000)" fill="#ff0000" stroke="none"> <path d="M111 740 c-32 -4 -49 -12 -63 -31 -18 -24 -20 -48 -22 -310 -2 -156 1 -297 5 -314 19 -66 15 -65 395 -65 l343 0 28 24 28 24 0 299 c0 164 -4 310 -7 324 -13 47 -32 50 -358 52 -168 1 -325 0 -349 -3z m673 -36 c14 -13 16 -57 16 -321 0 -271 -2 -309 -17 -325 -15 -17 -39 -18 -355 -18 -215 0 -346 4 -359 10 -18 10 -19 25 -19 328 0 234 3 321 12 330 9 9 103 12 359 12 303 0 350 -2 363 -16z"/> <path d="M348 580 c-12 -7 -18 -23 -18 -46 0 -22 -5 -34 -12 -33 -26 3 -36 -2 -67 -33 -44 -45 -38 -98 11 -98 10 0 18 -4 18 -10 0 -5 -5 -10 -11 -10 -8 0 -10 -16 -6 -51 9 -78 48 -110 88 -73 15 14 19 13 42 -10 30 -30 86 -42 117 -26 16 9 21 19 18 42 -2 26 1 32 20 33 25 2 79 49 87 76 8 26 -12 59 -35 59 -11 0 -20 5 -20 10 0 6 5 10 10 10 15 0 12 55 -4 94 -17 41 -50 55 -75 32 -18 -16 -56 -12 -46 5 13 21 -89 46 -117 29z m87 -19 c15 -6 10 -10 -25 -16 l-45 -9 50 -5 c38 -5 51 -10 53 -24 4 -20 -24 -57 -43 -57 -26 0 -81 81 -71 106 6 15 48 18 81 5z m129 -43 c8 -13 17 -39 20 -58 3 -19 3 -28 -1 -20 -11 27 -44 70 -53 70 -5 0 2 -16 15 -36 29 -43 30 -48 10 -64 -14 -12 -75 -5 -75 8 0 18 21 77 35 98 19 30 31 30 49 2z m-275 -55 c-10 -21 -19 -44 -19 -53 1 -8 10 3 20 24 19 38 36 56 53 56 7 0 37 -60 37 -73 0 -9 -88 -29 -111 -25 -35 5 -34 31 1 72 18 20 33 36 35 36 2 0 -6 -17 -16 -37z m158 -69 c8 -21 -13 -42 -28 -27 -13 13 -5 43 11 43 6 0 13 -7 17 -16z m128 -41 c-3 -16 -17 -39 -31 -53 -21 -21 -26 -23 -38 -10 -8 8 -17 26 -21 40 -5 22 -1 28 22 37 15 6 39 11 52 12 20 1 22 -2 16 -26z m43 4 c2 -9 -13 -33 -32 -54 l-36 -38 20 40 c11 21 20 48 20 58 0 22 24 17 28 -6z m-241 -1 c8 -8 -18 -85 -36 -107 -22 -27 -38 -19 -57 27 -18 43 -18 80 0 39 7 -16 24 -39 36 -50 l23 -20 -12 22 c-6 12 -15 24 -20 27 -16 11 -23 59 -9 68 12 8 66 3 75 -6z m97 -77 c50 -54 45 -74 -17 -73 -26 0 -53 6 -60 13 -9 10 -8 11 6 5 9 -3 34 -3 55 2 l37 8 -50 6 c-38 4 -51 9 -53 23 -4 18 23 57 38 57 4 0 24 -18 44 -41z"/> <path d="M948 520 c-16 -10 -18 -28 -18 -139 0 -146 7 -164 61 -144 17 7 31 7 35 2 7 -12 61 -12 69 1 4 7 12 7 25 0 21 -11 89 -13 114 -4 25 10 21 71 -5 79 l-21 7 21 22 c23 25 28 65 9 84 -9 9 -9 15 0 24 17 17 15 65 -4 72 -38 14 -95 6 -119 -18 -23 -23 -24 -23 -42 -5 -22 22 -101 34 -125 19z m111 -36 c27 -34 27 -74 1 -102 l-20 -22 25 -50 c31 -61 31 -70 1 -70 -19 0 -28 11 -49 57 l-26 58 0 -58 c-1 -53 -3 -58 -22 -55 -19 3 -20 9 -20 131 0 70 0 129 1 132 0 3 20 5 44 5 36 0 48 -5 65 -26z m181 1 c0 -22 -4 -25 -35 -25 -31 0 -35 -3 -35 -26 0 -23 3 -25 33 -22 28 3 32 0 32 -22 0 -22 -4 -25 -32 -22 -31 2 -33 0 -33 -33 0 -33 2 -35 35 -35 31 0 35 -3 35 -25 0 -24 -3 -25 -60 -25 l-60 0 0 130 0 130 60 0 c57 0 60 -1 60 -25z"/> <path d="M997 463 c-4 -3 -7 -22 -7 -40 0 -27 4 -34 18 -31 21 4 28 50 9 66 -8 7 -17 9 -20 5z"/> <path d="M1625 507 c-58 -33 -78 -103 -55 -188 15 -52 51 -82 101 -83 73 -2 82 58 11 76 -26 7 -32 15 -38 45 -8 45 2 63 51 87 59 30 69 17 75 -97 3 -52 8 -99 13 -103 4 -4 7 43 7 104 0 105 -1 112 -20 112 -15 0 -20 7 -20 25 0 24 2 25 65 25 63 0 65 -1 65 -25 0 -18 -5 -25 -20 -25 -19 0 -20 -6 -19 -112 1 -122 16 -108 18 16 1 56 5 74 22 92 14 15 19 29 14 43 -7 22 -18 25 -100 22 -75 -3 -78 -3 -105 4 -16 3 -39 -2 -65 -18z m95 -22 c0 -22 -4 -25 -34 -25 -40 0 -55 -15 -63 -64 -10 -65 27 -115 78 -104 9 2 14 -5 14 -19 0 -13 -3 -23 -7 -23 -5 0 -21 0 -37 0 -67 0 -113 88 -91 170 13 50 60 90 106 90 30 0 34 -3 34 -25z"/> <path d="M2837 523 c-4 -4 -52 -6 -107 -5 l-99 1 -13 -30 c-16 -36 -21 -36 -35 1 -9 25 -17 30 -42 30 -24 0 -34 -6 -40 -22 -5 -13 -5 -24 0 -26 5 -2 9 -18 8 -35 l-1 -32 -9 32 c-14 47 -62 83 -111 83 -54 0 -91 -28 -108 -82 l-13 -43 -13 54 c-15 64 -23 74 -60 69 -23 -2 -31 -10 -40 -36 l-10 -33 -15 33 c-15 35 -50 48 -74 28 -7 -6 -17 -40 -20 -76 -6 -55 -10 -64 -24 -58 -57 24 -111 9 -111 -31 0 -31 33 -46 84 -38 36 6 36 5 36 -31 0 -43 19 -55 61 -39 17 7 31 7 35 2 7 -12 51 -12 59 1 4 7 13 6 26 -1 11 -5 28 -8 37 -6 13 4 12 5 -5 6 -18 1 -22 9 -28 62 -4 33 -9 58 -12 55 -3 -3 -11 -29 -18 -58 -9 -42 -16 -53 -31 -53 -15 0 -22 12 -33 60 -13 51 -16 56 -22 35 -4 -14 -7 -42 -8 -62 -1 -34 -4 -38 -26 -38 -29 0 -28 -5 -14 114 19 160 18 156 43 156 20 0 24 -8 35 -63 21 -109 31 -102 53 38 2 13 12 21 28 23 25 3 26 2 38 -111 14 -134 30 -189 33 -117 1 25 4 35 6 22 6 -29 69 -72 106 -72 38 0 83 27 97 59 7 14 16 34 21 43 5 10 9 27 9 38 0 33 17 14 25 -27 3 -20 14 -54 22 -75 14 -35 19 -39 47 -36 29 3 33 8 53 68 12 36 23 66 24 68 1 1 2 6 3 11 0 5 4 13 9 17 4 4 7 -13 8 -37 0 -24 3 -62 7 -84 l7 -40 85 -2 c120 -3 130 0 130 42 0 25 -5 35 -20 40 -11 3 -20 9 -20 13 0 4 9 13 20 20 24 15 27 67 4 80 -14 8 -14 10 0 21 21 17 21 67 0 75 -21 8 -69 8 -77 -1z m-384 -41 c27 -28 40 -95 26 -145 -20 -77 -66 -107 -125 -82 -46 19 -68 70 -62 144 4 46 10 59 38 84 27 24 39 28 68 23 20 -3 44 -14 55 -24z m117 14 c0 -22 33 -162 36 -151 1 6 10 45 19 88 15 70 18 77 41 77 13 0 24 -3 24 -7 0 -4 -15 -65 -32 -135 -30 -117 -35 -128 -55 -128 -13 0 -23 2 -23 5 0 3 -15 64 -34 135 l-35 130 30 0 c18 0 29 -5 29 -14z m200 -119 l0 -133 -25 -2 -25 -2 0 135 0 135 25 0 25 0 0 -133z m150 107 c0 -23 -3 -25 -32 -22 -30 3 -33 0 -36 -25 -3 -27 -1 -28 30 -25 29 3 33 0 33 -22 0 -21 -5 -25 -30 -25 -26 0 -30 -4 -32 -32 -3 -31 -1 -33 32 -33 31 0 35 -3 35 -25 0 -24 -3 -25 -55 -25 l-55 0 0 130 0 130 55 0 c52 0 55 -1 55 -26z m-920 -139 c0 -23 -4 -25 -45 -25 -41 0 -45 2 -45 25 0 23 4 25 45 25 41 0 45 -2 45 -25z"/> <path d="M2358 453 c-41 -46 -28 -148 19 -160 54 -13 83 78 48 147 -17 34 -44 39 -67 13z m50 -25 c13 -13 15 -49 6 -85 -4 -16 -14 -23 -30 -23 -18 0 -24 7 -29 33 -12 60 21 107 53 75z"/> <path d="M1379 488 c-7 -12 -30 -59 -52 -103 -21 -44 -42 -82 -46 -85 -12 -8 -24 -50 -14 -50 10 0 136 250 129 257 -2 3 -10 -6 -17 -19z"/> <path d="M1420 501 c0 -6 28 -66 61 -134 50 -99 63 -118 70 -102 4 11 8 27 8 35 0 11 -3 10 -8 -3 -5 -14 -15 -1 -43 55 -20 40 -39 83 -43 94 -7 26 -45 72 -45 55z"/> <path d="M1362 365 c-23 -47 -42 -87 -42 -90 0 -3 41 -5 91 -5 57 0 88 4 84 10 -3 6 -37 10 -76 10 -38 0 -69 3 -69 8 1 4 14 32 29 62 l28 54 22 -42 21 -42 -29 0 c-16 0 -33 -4 -36 -10 -4 -6 13 -10 44 -10 28 0 51 3 51 7 0 7 -69 133 -73 133 -2 0 -22 -38 -45 -85z"/> <path d="M1343 233 c37 -2 97 -2 135 0 37 2 6 3 -68 3 -74 0 -105 -1 -67 -3z"/> </g> </svg> 